<?xml version="1.0" encoding="utf-8"?>
<svg xmlns="http://www.w3.org/2000/svg" fill="none" height="100%" overflow="visible" preserveAspectRatio="none" style="display: block;" viewBox="0 0 135 32.0865" width="100%">
<g id="logo">
<path d="M11.1791 0.684635C15.356 -0.557136 20.9827 -0.523849 26.6659 4.35183C27.2434 4.8473 27.3103 5.71756 26.8153 6.2956C26.3203 6.87361 25.4507 6.94067 24.8732 6.44527C20.0114 2.27434 15.3941 2.30755 11.9635 3.32744C6.87212 4.8411 3.72872 8.55438 2.91469 13.8553C2.40409 17.1805 3.00184 21.0434 6.30087 24.6756C9.58803 28.2947 13.3059 29.1522 16.6627 28.8005C20.091 28.4412 23.1659 26.8087 24.9162 25.4256C25.5132 24.9539 26.3793 25.0558 26.8506 25.6533C27.322 26.2509 27.22 27.118 26.6229 27.5897C24.557 29.2222 21.0031 31.1178 16.9494 31.5426C12.8244 31.9748 8.20646 30.8719 4.26276 26.53C0.330954 22.2011 -0.427366 17.4694 0.191876 13.4366C1.15939 7.13587 5.13586 2.48129 11.1791 0.684635ZM59.2993 0.400885C60.0599 0.400947 60.6764 1.01833 60.6764 1.77962V30.1258C60.6764 30.8871 60.0599 31.5045 59.2993 31.5045C58.5387 31.5045 57.9219 30.8871 57.9219 30.1258V1.77962C57.9219 1.01832 58.5387 0.400926 59.2993 0.400885ZM132.476 1.61761C132.898 0.984262 133.754 0.813361 134.387 1.23559C135.019 1.65791 135.19 2.51359 134.769 3.14703L125.961 16.3697V30.1258C125.961 30.8871 125.344 31.5042 124.584 31.5042C123.823 31.5042 123.206 30.8871 123.206 30.1258V15.535L132.476 1.61761ZM88.3298 1.20993C88.8105 0.619956 89.6781 0.531611 90.2676 1.01258C90.8571 1.49366 90.9452 2.36193 90.4646 2.95202L80.1161 15.657L90.1535 27.7563C89.2047 27.9553 88.4102 28.6659 88.1348 29.6387L78.3423 17.8348L67.8681 30.6955C67.3875 31.2856 66.5199 31.3738 65.9303 30.8928C65.3408 30.4118 65.2524 29.5435 65.733 28.9534L88.3298 1.20993ZM32.3294 0.101202C33.0571 0.138092 33.6357 0.740443 33.6358 1.47794V28.1444H53.3488L53.4195 28.146C54.1473 28.1829 54.7262 28.7852 54.7262 29.5228C54.7262 30.2841 54.1095 30.9015 53.3488 30.9015H30.8813V1.47794C30.8814 0.716697 31.4981 0.0995772 32.2587 0.0995354L32.3294 0.101202ZM66.2173 1.02425C66.8004 0.535446 67.6689 0.612208 68.1574 1.19559L77.4892 12.1289C77.9256 12.6403 77.93 13.3919 77.4995 13.9083C76.9519 14.5653 75.9447 14.571 75.3897 13.9203L66.046 2.96635C65.5576 2.38277 65.6343 1.51318 66.2173 1.02425ZM123.726 13.4494C123.188 14.2567 122.009 14.279 121.441 13.4927L115.179 4.83186C116.142 4.70185 116.986 4.04935 117.33 3.09944L123.694 11.8598C124.036 12.3308 124.049 12.965 123.726 13.4494Z" fill="var(--fill-0, white)" id="Exclude"/>
<path clip-rule="evenodd" d="M102.056 24.1L102.049 24.1275L102.044 24.1483C101.636 25.7248 100.591 27.9603 98.7189 29.6654C96.7844 31.427 94.0004 32.5788 90.3636 31.8787C89.5094 31.7143 88.9504 30.888 89.1146 30.0334C89.2788 29.1788 90.1042 28.619 90.9585 28.7834C93.5358 29.2795 95.3324 28.4876 96.5992 27.334C97.9193 26.132 98.6958 24.4945 98.9892 23.38C99.6931 20.2623 101.508 12.6372 103.19 6.86626C104.19 3.43443 106.488 1.63144 108.918 0.850818C111.262 0.0982727 113.696 0.294448 115.254 0.698816C116.096 0.917302 116.602 1.77747 116.384 2.61985C116.165 3.46229 115.306 3.96846 114.464 3.74995C113.334 3.45666 111.526 3.32389 109.881 3.85211C108.324 4.35213 106.887 5.43935 106.214 7.74874C104.554 13.4437 102.75 21.022 102.056 24.1Z" fill="var(--fill-0, #16DC76)" fill-rule="evenodd" id="S"/>
</g>
</svg>